<?xml version="1.0" encoding="UTF-8" standalone="no"?>
<!-- Generator: Adobe Illustrator 18.1.1, SVG Export Plug-In . SVG Version: 6.00 Build 0)  -->

<svg
   xmlns:dc="http://purl.org/dc/elements/1.1/"
   xmlns:cc="http://creativecommons.org/ns#"
   xmlns:rdf="http://www.w3.org/1999/02/22-rdf-syntax-ns#"
   xmlns:svg="http://www.w3.org/2000/svg"
   xmlns="http://www.w3.org/2000/svg"
   xmlns:sodipodi="http://sodipodi.sourceforge.net/DTD/sodipodi-0.dtd"
   xmlns:inkscape="http://www.inkscape.org/namespaces/inkscape"
   version="1.1"
   id="Capa_1"
   x="0px"
   y="0px"
   viewBox="0 0 75.999998 75.999998"
   xml:space="preserve"
   inkscape:version="0.91 r13725"
   sodipodi:docname="thumb-finger-up.svg"
   width="76"
   height="76"><metadata
     id="metadata43"><rdf:RDF><cc:Work
         rdf:about=""><dc:format>image/svg+xml</dc:format><dc:type
           rdf:resource="http://purl.org/dc/dcmitype/StillImage" /><dc:title></dc:title></cc:Work></rdf:RDF></metadata><defs
     id="defs41" /><sodipodi:namedview
     pagecolor="#ffffff"
     bordercolor="#666666"
     borderopacity="1"
     objecttolerance="10"
     gridtolerance="10"
     guidetolerance="10"
     inkscape:pageopacity="0"
     inkscape:pageshadow="2"
     inkscape:window-width="1857"
     inkscape:window-height="1056"
     id="namedview39"
     showgrid="false"
     inkscape:zoom="3.8812373"
     inkscape:cx="92.301458"
     inkscape:cy="60.818457"
     inkscape:window-x="63"
     inkscape:window-y="24"
     inkscape:window-maximized="1"
     inkscape:current-layer="Capa_1" /><g
     id="g3"
     transform="matrix(0.12196815,0,0,0.11629037,17.040276,17.964453)"><g
       id="g5"><path
         style="fill:#010002"
         d="m 301.294,186.876 c 14.022,-11.025 28.566,-46.167 -14.403,-56.316 -30.894,-7.234 -51.617,14.773 -66.313,-17.574 -13.462,-29.648 28.066,-83.43 -17.16,-108.808 -16.649,-9.361 -31.965,-3.416 -30.355,22.159 3.03,51.258 -27.951,58.59 -50.964,106.524 -21.985,12.847 -39.879,19.902 -61.945,33.042 l -31.65,0.332 0,149.052 29.404,0 22.697,6.63 c 34.799,18.237 77.73,22.05 107.612,22.05 17.992,0 54.276,-1.697 66.09,-11.15 13.396,-10.72 17.269,-27.913 18.455,-35.12 23.35,-9.366 29.578,-28.898 21.022,-50.034 10.095,-5.559 16.366,-12.988 18.645,-22.077 4.676,-18.504 -7.654,-32.679 -11.135,-38.71 z"
         id="path7"
         inkscape:connector-curvature="0" /></g></g><g
     id="g9"
     transform="translate(0,-267.96701)" /><g
     id="g11"
     transform="translate(0,-267.96701)" /><g
     id="g13"
     transform="translate(0,-267.96701)" /><g
     id="g15"
     transform="translate(0,-267.96701)" /><g
     id="g17"
     transform="translate(0,-267.96701)" /><g
     id="g19"
     transform="translate(0,-267.96701)" /><g
     id="g21"
     transform="translate(0,-267.96701)" /><g
     id="g23"
     transform="translate(0,-267.96701)" /><g
     id="g25"
     transform="translate(0,-267.96701)" /><g
     id="g27"
     transform="translate(0,-267.96701)" /><g
     id="g29"
     transform="translate(0,-267.96701)" /><g
     id="g31"
     transform="translate(0,-267.96701)" /><g
     id="g33"
     transform="translate(0,-267.96701)" /><g
     id="g35"
     transform="translate(0,-267.96701)" /><g
     id="g37"
     transform="translate(0,-267.96701)" /></svg>