<?xml version="1.0" encoding="UTF-8" standalone="no"?>
<!-- Generator: Adobe Illustrator 19.0.0, SVG Export Plug-In . SVG Version: 6.00 Build 0)  -->

<svg
   xmlns:dc="http://purl.org/dc/elements/1.1/"
   xmlns:cc="http://creativecommons.org/ns#"
   xmlns:rdf="http://www.w3.org/1999/02/22-rdf-syntax-ns#"
   xmlns:svg="http://www.w3.org/2000/svg"
   xmlns="http://www.w3.org/2000/svg"
   xmlns:sodipodi="http://sodipodi.sourceforge.net/DTD/sodipodi-0.dtd"
   xmlns:inkscape="http://www.inkscape.org/namespaces/inkscape"
   version="1.1"
   id="Layer_1"
   x="0px"
   y="0px"
   viewBox="0 0 30.000117 30.000117"
   xml:space="preserve"
   width="30"
   height="30"
   inkscape:version="0.91 r13725"
   sodipodi:docname="singleselect.svg"><metadata
     id="metadata25"><rdf:RDF><cc:Work
         rdf:about=""><dc:format>image/svg+xml</dc:format><dc:type
           rdf:resource="http://purl.org/dc/dcmitype/StillImage" /><dc:title></dc:title></cc:Work></rdf:RDF></metadata><defs
     id="defs23" /><sodipodi:namedview
     pagecolor="#ffffff"
     bordercolor="#666666"
     borderopacity="1"
     objecttolerance="10"
     gridtolerance="10"
     guidetolerance="10"
     inkscape:pageopacity="0"
     inkscape:pageshadow="2"
     inkscape:window-width="1857"
     inkscape:window-height="1056"
     id="namedview21"
     showgrid="false"
     inkscape:snap-bbox="true"
     inkscape:bbox-paths="true"
     inkscape:bbox-nodes="true"
     inkscape:snap-bbox-edge-midpoints="true"
     inkscape:snap-bbox-midpoints="true"
     inkscape:zoom="14.75"
     inkscape:cx="12.667795"
     inkscape:cy="18.67848"
     inkscape:window-x="63"
     inkscape:window-y="24"
     inkscape:window-maximized="1"
     inkscape:current-layer="g3"><inkscape:grid
       type="xygrid"
       id="grid4166" /></sodipodi:namedview><g
     id="g3"
     transform="translate(0,-482.0019)"><g
       id="g4142"
       transform="matrix(0.86692353,0,0,0.95517526,-0.49739068,22.640306)"><path
         style="fill:#000000;fill-opacity:1"
         d="m 5.4210762,483.06842 19.1579698,18.4642 -8.1624,0 3.74133,7.63219 -4.521772,1.77069 -3.74133,-7.66222 -6.4737978,5.09399 0,-25.29885 z"
         id="path9"
         inkscape:connector-curvature="0" /><g
         id="g11"><path
           inkscape:connector-curvature="0"
           style="fill:#000000;fill-opacity:1"
           id="path13"
           d="m 9.1053004,489.29754 c -0.3389481,0 -0.6140371,0.25377 -0.6140371,0.56644 0,0.31268 0.275089,0.56644 0.6140371,0.56644 0.338949,0 0.614038,-0.25376 0.614038,-0.56644 0,-0.31267 -0.275089,-0.56644 -0.614038,-0.56644 z" /><path
           inkscape:connector-curvature="0"
           style="fill:#000000;fill-opacity:1"
           id="path17"
           d="m 5.1922853,482.54276 c -0.23272,0.0862 -0.385247,0.29432 -0.385247,0.52566 l 0,25.29885 c 0,0.22097 0.139325,0.42177 0.356817,0.51432 0.217431,0.0926 0.473484,0.0601 0.655731,-0.0834 l 5.8514077,-4.60424 3.405391,6.97417 c 0.137606,0.28174 0.493379,0.40874 0.799784,0.28877 l 4.521772,-1.77069 c 0.316843,-0.12411 0.461694,-0.46488 0.319545,-0.75478 l -3.349268,-6.83238 7.210826,0 c 0.245924,0 0.468084,-0.13532 0.564674,-0.34394 0.0966,-0.20862 0.0489,-0.45027 -0.12109,-0.61414 L 5.8646563,482.67676 c -0.173465,-0.16721 -0.439651,-0.22029 -0.672371,-0.13402 z m 0.842828,1.93666 17.1062237,16.48676 -6.724693,0 c -0.208527,0 -0.40287,0.0976 -0.515914,0.25932 -0.113044,0.16166 -0.129439,0.36518 -0.04353,0.54049 l 3.482329,7.10399 -3.390162,1.32756 -3.49461,-7.15689 c -0.0794,-0.16251 -0.236957,-0.28107 -0.425528,-0.32004 -0.04458,-0.009 -0.08959,-0.0138 -0.134352,-0.0138 -0.144544,0 -0.286264,0.0472 -0.398448,0.13549 l -5.4612497,4.29723 0,-22.66015 z" /><path
           inkscape:connector-curvature="0"
           style="fill:#000000;fill-opacity:1"
           id="path19"
           d="m 18.136195,498.54482 c 0.245983,-0.21536 0.256176,-0.57385 0.02272,-0.80077 l -6.866167,-6.67435 c -0.233518,-0.22691 -0.62202,-0.23631 -0.868126,-0.0209 -0.245983,0.21536 -0.256176,0.57385 -0.02272,0.80077 l 6.866167,6.67435 c 0.23315,0.22657 0.621774,0.23665 0.868126,0.0209 z" /></g></g></g></svg>